<?xml version="1.0" encoding="UTF-8"?>
<svg id="a" data-name="Layer 1" xmlns="http://www.w3.org/2000/svg" width="2400" height="446.629" viewBox="0 0 2400 446.629">
  <path d="M.628,114.889h166.15c9.877,0,19.151,1.86,27.796,5.554,8.646,3.72,16.16,8.872,22.544,15.456,6.384,6.585,11.41,14.099,15.13,22.544,3.694,8.444,5.554,17.593,5.554,27.47s-1.86,19.151-5.554,27.796c-3.72,8.646-8.746,16.16-15.13,22.544-6.384,6.409-13.898,11.435-22.544,15.13-8.646,3.72-17.919,5.579-27.796,5.579h-95.729c-5.78,0-10.832,2.161-15.155,6.484-4.323,4.323-6.484,9.374-6.484,15.13v71.024H0v-71.024c0-9.877,1.86-19.151,5.554-27.796,3.72-8.646,8.872-16.16,15.456-22.544,6.585-6.384,14.099-11.435,22.544-15.13,8.444-3.72,17.593-5.554,27.495-5.554h95.729c5.755,0,10.807-2.161,15.13-6.509,4.323-4.323,6.484-9.349,6.484-15.13s-2.161-10.807-6.484-15.13c-4.323-4.323-9.374-6.484-15.13-6.484H.628v-49.41ZM508.955,349.6h-59.287l-75.975-92.638h-37.673c-5.78,0-10.832,2.161-15.155,6.484-4.323,4.323-6.484,9.374-6.484,15.13v71.024h-49.41v-71.024c0-9.877,1.86-19.151,5.554-27.796,3.72-8.646,8.872-16.16,15.456-22.544,6.585-6.384,14.099-11.435,22.544-15.13,8.444-3.72,17.593-5.554,27.495-5.554h103.746c5.78,0,10.807-2.161,15.13-6.509,4.323-4.323,6.484-9.349,6.484-15.13s-2.161-10.807-6.484-15.13c-4.323-4.323-9.349-6.484-15.13-6.484h-174.167v-49.41h174.167c9.902,0,19.05,1.86,27.495,5.554,8.444,3.72,15.959,8.872,22.544,15.456,6.585,6.585,11.737,14.099,15.431,22.544,3.72,8.444,5.579,17.593,5.579,27.47s-1.86,19.151-5.579,27.796c-3.694,8.646-8.847,16.16-15.431,22.544-6.585,6.409-14.099,11.435-22.544,15.13-8.444,3.72-17.593,5.579-27.495,5.579h-6.786l75.975,92.638ZM715.869,349.6h-64.238c-16.06,0-31.29-3.091-45.716-9.274-14.401-6.157-26.866-14.501-37.372-25.007-10.48-10.505-18.824-22.946-25.007-37.372-6.183-14.401-9.249-29.631-9.249-45.691s3.066-31.29,9.249-45.716c6.183-14.401,14.526-26.866,25.007-37.372,10.505-10.505,22.971-18.824,37.372-25.007,14.426-6.183,29.656-9.274,45.716-9.274h64.238c16.06,0,31.29,3.091,45.691,9.274,14.426,6.183,26.892,14.501,37.372,25.007,10.505,10.505,18.849,22.971,25.032,37.372,6.157,14.426,9.249,29.656,9.249,45.716s-3.091,31.29-9.249,45.691c-6.183,14.426-14.526,26.866-25.032,37.372-10.48,10.505-22.946,18.849-37.372,25.007-14.401,6.183-29.631,9.274-45.691,9.274ZM651.631,164.299c-9.475,0-18.321,1.759-26.565,5.253-8.243,3.493-15.431,8.344-21.614,14.526-6.183,6.157-11.008,13.37-14.526,21.614-3.493,8.243-5.228,17.09-5.228,26.565s1.734,18.321,5.228,26.54c3.519,8.243,8.344,15.456,14.526,21.614,6.183,6.183,13.37,11.033,21.614,14.526,8.243,3.493,17.09,5.253,26.565,5.253h64.238c9.475,0,18.321-1.759,26.565-5.253,8.218-3.493,15.431-8.344,21.614-14.526,6.183-6.157,11.008-13.37,14.501-21.614,3.493-8.218,5.253-17.065,5.253-26.54s-1.759-18.321-5.253-26.565c-3.493-8.243-8.319-15.456-14.501-21.614-6.183-6.183-13.396-11.033-21.614-14.526-8.243-3.493-17.09-5.253-26.565-5.253h-64.238ZM1440.322,349.6h-49.41v-182.812c0-16.487,4.725-29.355,14.225-38.603,9.45-9.274,20.156-13.898,32.094-13.898,8.243,0,16.286,2.463,24.102,7.389,7.816,4.951,14.401,12.767,19.754,23.474l82.786,151.322c.804,1.659,1.231,2.689,1.231,3.091v1.231l.603-.603h2.488c1.231,0,2.036.101,2.463.302.402.226.829.302,1.231.302v-1.231c.402-.402.628-.804.628-1.231,0-.402.201-1.03.603-1.86l82.761-151.322c5.353-10.706,11.938-18.422,19.779-23.147,7.816-4.725,16.06-7.112,24.705-7.112,11.938,0,22.544,4.549,31.818,13.597,9.249,9.048,13.873,21.815,13.873,38.302v182.812h-49.41v-154.413c0-4.951-1.231-7.615-3.694-8.017-2.463-.427-4.75,1.03-6.786,4.323l-73.512,130.939c-8.646,18.12-23.474,27.168-44.459,27.168s-35.638-9.048-43.856-27.168l-73.512-130.939c-2.061-3.292-4.323-4.75-6.786-4.323-2.463.402-3.72,3.066-3.72,8.017v154.413ZM1890.417,300.19h176.052c5.755,0,10.807-2.161,15.13-6.484,4.323-4.323,6.484-9.374,6.484-15.13s-2.061-10.807-6.183-15.13c-4.122-4.323-9.274-6.484-15.431-6.484h-114.905c-9.877,0-19.05-1.86-27.47-5.579-8.444-3.694-15.959-8.847-22.544-15.431-6.585-6.585-11.737-14.099-15.456-22.544-3.694-8.444-5.554-17.593-5.554-27.495s1.86-19.126,5.554-27.796c3.72-8.646,8.872-16.135,15.456-22.544,6.585-6.358,14.099-11.41,22.544-15.13,8.419-3.694,17.593-5.554,27.47-5.554h163.084v49.41h-163.084c-5.755,0-10.807,2.161-15.13,6.484-4.323,4.323-6.484,9.374-6.484,15.13s2.161,10.807,6.484,15.13c4.323,4.348,9.374,6.509,15.13,6.509h114.905c9.877,0,19.126,1.835,27.796,5.554,8.646,3.694,16.135,8.847,22.544,15.431,6.358,6.585,11.41,14.124,15.13,22.544,3.694,8.444,5.554,17.618,5.554,27.495s-1.86,19.151-5.554,27.796c-3.72,8.646-8.771,16.16-15.13,22.544-6.409,6.384-13.898,11.41-22.544,15.13-8.671,3.694-17.919,5.554-27.796,5.554h-176.052v-49.41ZM2147.998,114.889h252.002v49.41h-101.308v185.301h-49.41v-185.301h-101.283v-49.41ZM1840.854,114.286v235.314h-49.257v-125.433c0-10.424,3.41-20.562,9.709-28.867l27.861-30.963h-37.57v-50.052h49.257Z" fill="#fff"/>
  <path d="M939.954,111.019c-7.294,10.815-13.569,22.372-18.637,34.344-5.156,12.224-9.117,25.001-11.771,37.979-2.716,13.355-4.1,27.088-4.1,40.796,0,6.049-4.905,10.954-10.954,10.954s-10.954-4.905-10.954-10.954c0-15.179,1.534-30.383,4.552-45.185,2.943-14.387,7.332-28.56,13.054-42.104,5.621-13.293,12.576-26.107,20.662-38.092,8.036-11.884,17.241-23.039,27.352-33.162,10.161-10.149,21.316-19.354,33.175-27.365,11.972-8.086,24.787-15.028,38.079-20.649,13.481-5.709,27.642-10.098,42.091-13.054,29.541-6.036,60.905-6.036,90.395,0,5.923,1.207,9.746,6.992,8.526,12.928-1.207,5.923-7.042,9.696-12.928,8.526-26.573-5.433-54.956-5.433-81.604,0-13.029,2.666-25.793,6.627-37.954,11.771-11.985,5.068-23.542,11.343-34.357,18.637-10.689,7.218-20.763,15.531-29.93,24.699-9.13,9.13-17.443,19.203-24.699,29.93ZM1327.314,178.953c-2.93-14.387-7.319-28.56-13.054-42.116-5.596-13.255-12.551-26.07-20.662-38.092-7.998-11.834-17.191-22.989-27.34-33.15-10.161-10.149-21.316-19.354-33.175-27.365-5.005-3.395-11.809-2.05-15.204,2.955-3.383,5.005-2.062,11.821,2.955,15.204,10.689,7.218,20.763,15.531,29.93,24.686,9.155,9.18,17.468,19.254,24.686,29.93,7.319,10.84,13.582,22.397,18.637,34.357,5.169,12.224,9.13,25.001,11.771,37.979,2.729,13.343,4.112,27.063,4.112,40.796,0,6.049,4.905,10.954,10.954,10.954s10.954-4.905,10.954-10.954c0-15.204-1.534-30.408-4.565-45.185ZM984.561,358.976c-2.779-6.929-5.357-13.984-7.709-21.115-2.352-7.156-4.49-14.412-6.401-21.744-1.924-7.332-3.609-14.777-5.068-22.272-1.459-7.52-2.691-15.116-3.672-22.8-.993-7.684-1.735-15.43-2.238-23.265-.5-7.75-.745-15.599-.748-23.485.002-.055.031-.101.031-.157,0-10.111,1.019-20.222,3.018-30.056,1.949-9.532,4.867-18.952,8.665-27.956,3.748-8.853,8.363-17.367,13.72-25.29,5.345-7.898,11.469-15.317,18.197-22.058,6.715-6.728,14.135-12.84,22.045-18.197,5.005-3.383,6.326-10.186,2.93-15.204-3.395-5.005-10.174-6.3-15.204-2.93-9.067,6.124-17.568,13.142-25.265,20.851-7.709,7.722-14.726,16.223-20.838,25.265-6.162,9.105-11.457,18.876-15.757,29.05-4.364,10.337-7.709,21.14-9.947,32.093-2.283,11.177-3.438,22.663-3.457,34.151-.002.091-.052.165-.052.256,0,8.426.277,16.789.805,25.076.528,8.287,1.32,16.512,2.364,24.649,1.056,8.137,2.364,16.185,3.898,24.183,1.559,7.973,3.345,15.845,5.37,23.63,2.037,7.784,4.301,15.468,6.803,23.064,2.503,7.571,5.232,15.053,8.187,22.41,2.943,7.357,6.112,14.613,9.495,21.744,1.874,3.949,5.81,6.263,9.91,6.263,1.572,0,3.157-.34,4.678-1.056,5.458-2.591,7.797-9.117,5.206-14.588-3.182-6.728-6.175-13.557-8.967-20.511ZM1072.164,407.229c-5.395-7.307-10.488-14.865-15.242-22.662-4.741-7.784-9.168-15.808-13.217-24.02-4.049-8.225-7.759-16.65-11.079-25.29-3.32-8.602-6.275-17.417-8.816-26.384-2.553-8.979-4.703-18.109-6.451-27.39-1.735-9.294-3.056-18.725-3.949-28.321-.905-9.558-1.346-19.254-1.346-29.05,0-.013-.006-.022-.006-.033.003-6.436.651-12.914,1.93-19.246,1.258-6.112,3.131-12.148,5.571-17.946,2.402-5.684,5.357-11.142,8.803-16.235,3.446-5.093,7.382-9.872,11.695-14.173,4.339-4.339,9.092-8.262,14.16-11.683,5.093-3.446,10.551-6.401,16.248-8.803,5.722-2.427,11.758-4.301,17.946-5.571,12.588-2.565,26.032-2.565,38.595,0,6.162,1.258,12.199,3.131,17.958,5.571,5.684,2.402,11.142,5.357,16.248,8.816,5.055,3.408,9.809,7.332,14.148,11.67,4.276,4.276,11.218,4.276,15.493,0,4.276-4.276,4.276-11.218,0-15.493-5.332-5.32-11.18-10.149-17.38-14.324-6.275-4.251-13.003-7.898-19.983-10.84-7.08-2.993-14.512-5.307-22.083-6.854-15.456-3.169-31.917-3.169-47.398,0-7.596,1.559-15.028,3.861-22.083,6.854-6.98,2.943-13.708,6.59-19.97,10.828-6.212,4.188-12.06,9.017-17.392,14.336-5.294,5.294-10.111,11.142-14.336,17.392-4.251,6.275-7.898,13.003-10.84,19.983-3.018,7.13-5.32,14.563-6.854,22.108-1.585,7.784-2.389,15.745-2.389,23.668,0,.031.017.057.017.088.003,10.463.476,20.8,1.441,30.974.943,10.249,2.364,20.36,4.225,30.32,1.874,9.947,4.175,19.731,6.904,29.339,2.742,9.62,5.898,19.065,9.457,28.283,3.559,9.231,7.52,18.26,11.872,27.088,4.351,8.816,9.08,17.392,14.16,25.73,5.093,8.35,10.539,16.462,16.336,24.296,5.797,7.835,11.922,15.393,18.373,22.674,2.163,2.452,5.181,3.697,8.199,3.697,2.591,0,5.181-.905,7.256-2.754,4.527-4.012,4.955-10.928.943-15.456-6.024-6.803-11.746-13.884-17.166-21.19ZM1140.287,404.978c-6.627-6.59-12.878-13.544-18.75-20.851-5.848-7.281-11.331-14.902-16.374-22.825-5.055-7.923-9.671-16.135-13.833-24.623-4.163-8.476-7.872-17.229-11.092-26.208-3.219-8.979-5.948-18.21-8.162-27.629-1.396-5.885-7.357-9.52-13.179-8.149-5.885,1.396-9.532,7.294-8.149,13.179,2.402,10.186,5.382,20.272,8.866,29.993,3.458,9.646,7.508,19.216,12.048,28.472,4.54,9.218,9.558,18.134,15.028,26.724,5.483,8.614,11.419,16.889,17.782,24.787,6.363,7.923,13.167,15.481,20.348,22.636,7.181,7.168,14.739,13.947,22.687,20.285,2.012,1.622,4.427,2.402,6.816,2.402,3.219,0,6.401-1.408,8.564-4.125,3.785-4.716,3.006-11.607-1.723-15.38-7.294-5.835-14.274-12.085-20.876-18.688ZM1114.519,311.879c1.773,4.175,5.823,6.678,10.086,6.678,1.434,0,2.88-.277,4.276-.868,5.571-2.364,8.162-8.79,5.81-14.362-3.471-8.174-6.414-16.613-8.74-25.076-2.402-8.677-4.225-17.594-5.433-26.485-1.232-9.08-1.861-18.386-1.861-27.654,0-6.049-4.905-10.954-10.954-10.954s-10.954,4.905-10.954,10.954c0,10.249.692,20.549,2.062,30.597,1.346,9.872,3.37,19.744,6.011,29.352,2.591,9.407,5.86,18.763,9.696,27.818ZM1219.753,399.306c-7.52-4.326-14.814-9.193-21.706-14.462-6.816-5.194-13.418-10.928-19.618-17.065-6.099-6.036-11.909-12.576-17.254-19.442-3.748-4.791-10.589-5.647-15.368-1.912-4.766,3.71-5.634,10.601-1.912,15.368,5.923,7.608,12.362,14.865,19.128,21.555,6.866,6.791,14.185,13.154,21.731,18.914,7.634,5.835,15.732,11.218,24.083,16.034,1.71.981,3.597,1.459,5.445,1.459,3.798,0,7.483-1.974,9.507-5.496,3.018-5.232,1.207-11.934-4.037-14.953ZM1265.013,362.183c-6.728-2.704-13.33-5.961-19.669-9.671-6.275-3.685-12.249-7.822-17.883-12.349-5.647-4.552-10.941-9.495-15.858-14.802-4.93-5.307-9.457-10.979-13.569-16.965-4.112-5.973-7.81-12.324-10.991-18.851-3.232-6.627-5.986-13.532-8.187-20.511-2.226-7.08-3.949-14.45-5.093-21.882-1.17-7.545-1.761-15.292-1.761-23.039,0-.141-.075-.258-.08-.398-.028-4.276-.439-8.467-1.265-12.543-.868-4.175-2.125-8.199-3.748-12.06-1.622-3.836-3.597-7.483-5.936-10.954-2.314-3.395-4.93-6.565-7.847-9.482-2.905-2.892-6.074-5.521-9.482-7.822-3.408-2.301-7.068-4.301-10.928-5.936-3.861-1.622-7.898-2.88-12.048-3.722-8.476-1.748-17.48-1.748-25.881,0-4.2.843-8.25,2.113-12.085,3.722-3.861,1.635-7.52,3.634-10.916,5.923-3.433,2.314-6.615,4.955-9.52,7.847-2.905,2.918-5.546,6.099-7.86,9.52-2.301,3.421-4.276,7.068-5.885,10.878-1.66,3.886-2.918,7.973-3.76,12.085-.868,4.2-1.308,8.564-1.308,12.966,0,6.049,4.905,10.954,10.954,10.954s10.954-4.905,10.954-10.954c0-2.918.289-5.785.855-8.577.553-2.704,1.383-5.37,2.465-7.923,1.069-2.528,2.389-4.942,3.898-7.193,1.509-2.251,3.257-4.351,5.181-6.263,1.899-1.912,3.999-3.647,6.263-5.169,2.251-1.522,4.653-2.842,7.193-3.911,2.515-1.069,5.181-1.886,7.96-2.452,5.596-1.157,11.457-1.157,17.103,0,2.754.566,5.408,1.396,7.935,2.465,2.528,1.056,4.93,2.377,7.181,3.898,2.251,1.522,4.364,3.27,6.263,5.169,1.937,1.924,3.672,4.037,5.169,6.25,1.522,2.264,2.842,4.678,3.898,7.193,1.082,2.54,1.912,5.206,2.477,7.935.553,2.767.855,5.634.855,8.577,0,.112.061.203.064.314.019,8.751.67,17.516,1.985,26.044,1.32,8.539,3.295,16.99,5.86,25.114,2.515,8.011,5.672,15.921,9.394,23.542,3.66,7.495,7.898,14.777,12.614,21.643,4.703,6.841,9.935,13.393,15.556,19.455,5.647,6.087,11.758,11.796,18.197,16.965,6.514,5.244,13.431,10.023,20.536,14.185,7.256,4.263,14.852,7.998,22.574,11.104,1.346.541,2.729.792,4.087.792,4.339,0,8.438-2.591,10.161-6.866,2.251-5.609-.465-11.997-6.074-14.248ZM1296.717,316.683c-5.068-1.32-9.985-3.043-14.676-5.131-4.779-2.113-9.344-4.615-13.682-7.483-4.339-2.842-8.401-6.036-12.211-9.545-3.81-3.483-7.319-7.281-10.501-11.331-3.194-4.075-6.074-8.401-8.589-12.978-2.503-4.552-4.653-9.331-6.401-14.311-1.761-4.967-3.094-10.124-4.012-15.43-.915-5.299-1.388-10.737-1.391-16.3,0-.013.008-.024.008-.036,0-7.986-.805-15.959-2.389-23.668-1.522-7.508-3.823-14.953-6.841-22.108-2.339-5.558-8.765-8.174-14.349-5.823-5.571,2.352-8.174,8.778-5.823,14.349,2.452,5.81,4.313,11.846,5.558,17.958,1.28,6.269,1.927,12.742,1.93,19.233,0,.011-.006.022-.006.033,0,6.841.604,13.557,1.723,20.084,1.119,6.539,2.779,12.878,4.93,18.989,2.163,6.124,4.791,12.01,7.885,17.594,3.081,5.609,6.615,10.916,10.539,15.934,3.936,4.993,8.25,9.671,12.903,13.947,4.678,4.301,9.696,8.225,15.003,11.708,5.332,3.509,10.954,6.59,16.826,9.205,5.885,2.616,12.022,4.766,18.398,6.388l2.767.34c6.049,0,10.903-4.905,10.903-10.954,0-5.194-3.647-9.545-8.501-10.664ZM1315.606,266.116c-2.603-.327-5.143-.868-7.558-1.635-2.44-.78-4.766-1.748-7.03-2.955-2.213-1.17-4.313-2.553-6.263-4.075-1.974-1.559-3.81-3.295-5.47-5.143-1.66-1.874-3.169-3.898-4.464-6.024-1.32-2.15-2.452-4.439-3.37-6.816-.918-2.377-1.635-4.842-2.113-7.407-.478-2.578-.742-5.232-.742-7.948,0-.061-.033-.113-.035-.174-.013-11.516-1.173-23.029-3.461-34.233-2.238-10.954-5.584-21.756-9.947-32.106-4.301-10.161-9.595-19.933-15.757-29.037-6.112-9.042-13.129-17.543-20.838-25.252-7.709-7.734-16.223-14.751-25.29-20.876-9.168-6.187-18.939-11.482-29.012-15.732-10.262-4.339-21.052-7.696-32.106-9.96-22.511-4.59-46.317-4.59-68.878,0-5.923,1.207-9.746,6.992-8.539,12.915,1.207,5.923,6.904,9.671,12.915,8.539,19.694-3.987,40.494-3.987,60.112,0,9.62,1.974,19.027,4.892,27.969,8.677,8.79,3.71,17.292,8.325,25.29,13.72,7.898,5.332,15.317,11.457,22.045,18.197,6.728,6.728,12.852,14.148,18.197,22.045,5.357,7.923,9.973,16.437,13.72,25.277,3.798,9.017,6.715,18.436,8.665,27.969,2,9.834,3.018,19.945,3.018,30.056,0,.09.05.163.052.253.019,3.998.38,7.923,1.093,11.694.729,3.898,1.823,7.671,3.219,11.28,1.396,3.609,3.106,7.055,5.106,10.35,2,3.245,4.263,6.3,6.803,9.155,2.515,2.83,5.282,5.42,8.262,7.772,2.98,2.364,6.187,4.452,9.545,6.225,3.383,1.811,6.942,3.307,10.689,4.49,3.697,1.17,7.545,2.012,11.507,2.49.453.063.905.088,1.346.088,5.458,0,10.174-4.075,10.853-9.62.742-5.999-3.534-11.469-9.532-12.199Z" fill="#fff"/>
</svg>